<?xml version="1.0" encoding="utf-8" standalone="no"?>
<!DOCTYPE svg PUBLIC "-//W3C//DTD SVG 1.1//EN"
  "http://www.w3.org/Graphics/SVG/1.1/DTD/svg11.dtd">
<svg xmlns:xlink="http://www.w3.org/1999/xlink" width="433.55125pt" height="325.986375pt" viewBox="0 0 433.55125 325.986375" xmlns="http://www.w3.org/2000/svg" version="1.1">
 <metadata>
  <rdf:RDF xmlns:dc="http://purl.org/dc/elements/1.1/" xmlns:cc="http://creativecommons.org/ns#" xmlns:rdf="http://www.w3.org/1999/02/22-rdf-syntax-ns#">
   <cc:Work>
    <dc:type rdf:resource="http://purl.org/dc/dcmitype/StillImage"/>
    <dc:date>2023-04-13T05:39:23.111649</dc:date>
    <dc:format>image/svg+xml</dc:format>
    <dc:creator>
     <cc:Agent>
      <dc:title>Matplotlib v3.5.2, https://matplotlib.org/</dc:title>
     </cc:Agent>
    </dc:creator>
   </cc:Work>
  </rdf:RDF>
 </metadata>
 <defs>
  <style type="text/css">*{stroke-linejoin: round; stroke-linecap: butt}</style>
 </defs>
 <g id="figure_1">
  <g id="patch_1">
   <path d="M 0 325.986375 
L 433.55125 325.986375 
L 433.55125 0 
L 0 0 
z
" style="fill: #ffffff"/>
  </g>
  <g id="axes_1">
   <g id="patch_2">
    <path d="M 69.23125 288.430125 
L 426.35125 288.430125 
L 426.35125 22.318125 
L 69.23125 22.318125 
z
" style="fill: #ffffff"/>
   </g>
   <g id="matplotlib.axis_1">
    <g id="xtick_1">
     <g id="line2d_1">
      <path d="M 84.813367 288.430125 
L 84.813367 22.318125 
" clip-path="url(#pec744263a6)" style="fill: none; stroke: #b0b0b0; stroke-width: 0.8; stroke-linecap: square"/>
     </g>
     <g id="line2d_2">
      <defs>
       <path id="m5b9f329884" d="M 0 0 
L 0 3.5 
" style="stroke: #000000; stroke-width: 0.8"/>
      </defs>
      <g>
       <use xlink:href="#m5b9f329884" x="84.813367" y="288.430125" style="stroke: #000000; stroke-width: 0.8"/>
      </g>
     </g>
     <g id="text_1">
      <!-- 0 -->
      <g transform="translate(81.632117 303.028562)scale(0.1 -0.1)">
       <defs>
        <path id="DejaVuSans-30" d="M 2034 4250 
Q 1547 4250 1301 3770 
Q 1056 3291 1056 2328 
Q 1056 1369 1301 889 
Q 1547 409 2034 409 
Q 2525 409 2770 889 
Q 3016 1369 3016 2328 
Q 3016 3291 2770 3770 
Q 2525 4250 2034 4250 
z
M 2034 4750 
Q 2819 4750 3233 4129 
Q 3647 3509 3647 2328 
Q 3647 1150 3233 529 
Q 2819 -91 2034 -91 
Q 1250 -91 836 529 
Q 422 1150 422 2328 
Q 422 3509 836 4129 
Q 1250 4750 2034 4750 
z
" transform="scale(0.015625)"/>
       </defs>
       <use xlink:href="#DejaVuSans-30"/>
      </g>
     </g>
    </g>
    <g id="xtick_2">
     <g id="line2d_3">
      <path d="M 149.874398 288.430125 
L 149.874398 22.318125 
" clip-path="url(#pec744263a6)" style="fill: none; stroke: #b0b0b0; stroke-width: 0.8; stroke-linecap: square"/>
     </g>
     <g id="line2d_4">
      <g>
       <use xlink:href="#m5b9f329884" x="149.874398" y="288.430125" style="stroke: #000000; stroke-width: 0.8"/>
      </g>
     </g>
     <g id="text_2">
      <!-- 100 -->
      <g transform="translate(140.330648 303.028562)scale(0.1 -0.1)">
       <defs>
        <path id="DejaVuSans-31" d="M 794 531 
L 1825 531 
L 1825 4091 
L 703 3866 
L 703 4441 
L 1819 4666 
L 2450 4666 
L 2450 531 
L 3481 531 
L 3481 0 
L 794 0 
L 794 531 
z
" transform="scale(0.015625)"/>
       </defs>
       <use xlink:href="#DejaVuSans-31"/>
       <use xlink:href="#DejaVuSans-30" x="63.623047"/>
       <use xlink:href="#DejaVuSans-30" x="127.246094"/>
      </g>
     </g>
    </g>
    <g id="xtick_3">
     <g id="line2d_5">
      <path d="M 214.935429 288.430125 
L 214.935429 22.318125 
" clip-path="url(#pec744263a6)" style="fill: none; stroke: #b0b0b0; stroke-width: 0.8; stroke-linecap: square"/>
     </g>
     <g id="line2d_6">
      <g>
       <use xlink:href="#m5b9f329884" x="214.935429" y="288.430125" style="stroke: #000000; stroke-width: 0.8"/>
      </g>
     </g>
     <g id="text_3">
      <!-- 200 -->
      <g transform="translate(205.391679 303.028562)scale(0.1 -0.1)">
       <defs>
        <path id="DejaVuSans-32" d="M 1228 531 
L 3431 531 
L 3431 0 
L 469 0 
L 469 531 
Q 828 903 1448 1529 
Q 2069 2156 2228 2338 
Q 2531 2678 2651 2914 
Q 2772 3150 2772 3378 
Q 2772 3750 2511 3984 
Q 2250 4219 1831 4219 
Q 1534 4219 1204 4116 
Q 875 4013 500 3803 
L 500 4441 
Q 881 4594 1212 4672 
Q 1544 4750 1819 4750 
Q 2544 4750 2975 4387 
Q 3406 4025 3406 3419 
Q 3406 3131 3298 2873 
Q 3191 2616 2906 2266 
Q 2828 2175 2409 1742 
Q 1991 1309 1228 531 
z
" transform="scale(0.015625)"/>
       </defs>
       <use xlink:href="#DejaVuSans-32"/>
       <use xlink:href="#DejaVuSans-30" x="63.623047"/>
       <use xlink:href="#DejaVuSans-30" x="127.246094"/>
      </g>
     </g>
    </g>
    <g id="xtick_4">
     <g id="line2d_7">
      <path d="M 279.99646 288.430125 
L 279.99646 22.318125 
" clip-path="url(#pec744263a6)" style="fill: none; stroke: #b0b0b0; stroke-width: 0.8; stroke-linecap: square"/>
     </g>
     <g id="line2d_8">
      <g>
       <use xlink:href="#m5b9f329884" x="279.99646" y="288.430125" style="stroke: #000000; stroke-width: 0.8"/>
      </g>
     </g>
     <g id="text_4">
      <!-- 300 -->
      <g transform="translate(270.45271 303.028562)scale(0.1 -0.1)">
       <defs>
        <path id="DejaVuSans-33" d="M 2597 2516 
Q 3050 2419 3304 2112 
Q 3559 1806 3559 1356 
Q 3559 666 3084 287 
Q 2609 -91 1734 -91 
Q 1441 -91 1130 -33 
Q 819 25 488 141 
L 488 750 
Q 750 597 1062 519 
Q 1375 441 1716 441 
Q 2309 441 2620 675 
Q 2931 909 2931 1356 
Q 2931 1769 2642 2001 
Q 2353 2234 1838 2234 
L 1294 2234 
L 1294 2753 
L 1863 2753 
Q 2328 2753 2575 2939 
Q 2822 3125 2822 3475 
Q 2822 3834 2567 4026 
Q 2313 4219 1838 4219 
Q 1578 4219 1281 4162 
Q 984 4106 628 3988 
L 628 4550 
Q 988 4650 1302 4700 
Q 1616 4750 1894 4750 
Q 2613 4750 3031 4423 
Q 3450 4097 3450 3541 
Q 3450 3153 3228 2886 
Q 3006 2619 2597 2516 
z
" transform="scale(0.015625)"/>
       </defs>
       <use xlink:href="#DejaVuSans-33"/>
       <use xlink:href="#DejaVuSans-30" x="63.623047"/>
       <use xlink:href="#DejaVuSans-30" x="127.246094"/>
      </g>
     </g>
    </g>
    <g id="xtick_5">
     <g id="line2d_9">
      <path d="M 345.057492 288.430125 
L 345.057492 22.318125 
" clip-path="url(#pec744263a6)" style="fill: none; stroke: #b0b0b0; stroke-width: 0.8; stroke-linecap: square"/>
     </g>
     <g id="line2d_10">
      <g>
       <use xlink:href="#m5b9f329884" x="345.057492" y="288.430125" style="stroke: #000000; stroke-width: 0.8"/>
      </g>
     </g>
     <g id="text_5">
      <!-- 400 -->
      <g transform="translate(335.513742 303.028562)scale(0.1 -0.1)">
       <defs>
        <path id="DejaVuSans-34" d="M 2419 4116 
L 825 1625 
L 2419 1625 
L 2419 4116 
z
M 2253 4666 
L 3047 4666 
L 3047 1625 
L 3713 1625 
L 3713 1100 
L 3047 1100 
L 3047 0 
L 2419 0 
L 2419 1100 
L 313 1100 
L 313 1709 
L 2253 4666 
z
" transform="scale(0.015625)"/>
       </defs>
       <use xlink:href="#DejaVuSans-34"/>
       <use xlink:href="#DejaVuSans-30" x="63.623047"/>
       <use xlink:href="#DejaVuSans-30" x="127.246094"/>
      </g>
     </g>
    </g>
    <g id="xtick_6">
     <g id="line2d_11">
      <path d="M 410.118523 288.430125 
L 410.118523 22.318125 
" clip-path="url(#pec744263a6)" style="fill: none; stroke: #b0b0b0; stroke-width: 0.8; stroke-linecap: square"/>
     </g>
     <g id="line2d_12">
      <g>
       <use xlink:href="#m5b9f329884" x="410.118523" y="288.430125" style="stroke: #000000; stroke-width: 0.8"/>
      </g>
     </g>
     <g id="text_6">
      <!-- 500 -->
      <g transform="translate(400.574773 303.028562)scale(0.1 -0.1)">
       <defs>
        <path id="DejaVuSans-35" d="M 691 4666 
L 3169 4666 
L 3169 4134 
L 1269 4134 
L 1269 2991 
Q 1406 3038 1543 3061 
Q 1681 3084 1819 3084 
Q 2600 3084 3056 2656 
Q 3513 2228 3513 1497 
Q 3513 744 3044 326 
Q 2575 -91 1722 -91 
Q 1428 -91 1123 -41 
Q 819 9 494 109 
L 494 744 
Q 775 591 1075 516 
Q 1375 441 1709 441 
Q 2250 441 2565 725 
Q 2881 1009 2881 1497 
Q 2881 1984 2565 2268 
Q 2250 2553 1709 2553 
Q 1456 2553 1204 2497 
Q 953 2441 691 2322 
L 691 4666 
z
" transform="scale(0.015625)"/>
       </defs>
       <use xlink:href="#DejaVuSans-35"/>
       <use xlink:href="#DejaVuSans-30" x="63.623047"/>
       <use xlink:href="#DejaVuSans-30" x="127.246094"/>
      </g>
     </g>
    </g>
    <g id="text_7">
     <!-- Generation Number -->
     <g transform="translate(198.223281 316.706687)scale(0.1 -0.1)">
      <defs>
       <path id="DejaVuSans-47" d="M 3809 666 
L 3809 1919 
L 2778 1919 
L 2778 2438 
L 4434 2438 
L 4434 434 
Q 4069 175 3628 42 
Q 3188 -91 2688 -91 
Q 1594 -91 976 548 
Q 359 1188 359 2328 
Q 359 3472 976 4111 
Q 1594 4750 2688 4750 
Q 3144 4750 3555 4637 
Q 3966 4525 4313 4306 
L 4313 3634 
Q 3963 3931 3569 4081 
Q 3175 4231 2741 4231 
Q 1884 4231 1454 3753 
Q 1025 3275 1025 2328 
Q 1025 1384 1454 906 
Q 1884 428 2741 428 
Q 3075 428 3337 486 
Q 3600 544 3809 666 
z
" transform="scale(0.015625)"/>
       <path id="DejaVuSans-65" d="M 3597 1894 
L 3597 1613 
L 953 1613 
Q 991 1019 1311 708 
Q 1631 397 2203 397 
Q 2534 397 2845 478 
Q 3156 559 3463 722 
L 3463 178 
Q 3153 47 2828 -22 
Q 2503 -91 2169 -91 
Q 1331 -91 842 396 
Q 353 884 353 1716 
Q 353 2575 817 3079 
Q 1281 3584 2069 3584 
Q 2775 3584 3186 3129 
Q 3597 2675 3597 1894 
z
M 3022 2063 
Q 3016 2534 2758 2815 
Q 2500 3097 2075 3097 
Q 1594 3097 1305 2825 
Q 1016 2553 972 2059 
L 3022 2063 
z
" transform="scale(0.015625)"/>
       <path id="DejaVuSans-6e" d="M 3513 2113 
L 3513 0 
L 2938 0 
L 2938 2094 
Q 2938 2591 2744 2837 
Q 2550 3084 2163 3084 
Q 1697 3084 1428 2787 
Q 1159 2491 1159 1978 
L 1159 0 
L 581 0 
L 581 3500 
L 1159 3500 
L 1159 2956 
Q 1366 3272 1645 3428 
Q 1925 3584 2291 3584 
Q 2894 3584 3203 3211 
Q 3513 2838 3513 2113 
z
" transform="scale(0.015625)"/>
       <path id="DejaVuSans-72" d="M 2631 2963 
Q 2534 3019 2420 3045 
Q 2306 3072 2169 3072 
Q 1681 3072 1420 2755 
Q 1159 2438 1159 1844 
L 1159 0 
L 581 0 
L 581 3500 
L 1159 3500 
L 1159 2956 
Q 1341 3275 1631 3429 
Q 1922 3584 2338 3584 
Q 2397 3584 2469 3576 
Q 2541 3569 2628 3553 
L 2631 2963 
z
" transform="scale(0.015625)"/>
       <path id="DejaVuSans-61" d="M 2194 1759 
Q 1497 1759 1228 1600 
Q 959 1441 959 1056 
Q 959 750 1161 570 
Q 1363 391 1709 391 
Q 2188 391 2477 730 
Q 2766 1069 2766 1631 
L 2766 1759 
L 2194 1759 
z
M 3341 1997 
L 3341 0 
L 2766 0 
L 2766 531 
Q 2569 213 2275 61 
Q 1981 -91 1556 -91 
Q 1019 -91 701 211 
Q 384 513 384 1019 
Q 384 1609 779 1909 
Q 1175 2209 1959 2209 
L 2766 2209 
L 2766 2266 
Q 2766 2663 2505 2880 
Q 2244 3097 1772 3097 
Q 1472 3097 1187 3025 
Q 903 2953 641 2809 
L 641 3341 
Q 956 3463 1253 3523 
Q 1550 3584 1831 3584 
Q 2591 3584 2966 3190 
Q 3341 2797 3341 1997 
z
" transform="scale(0.015625)"/>
       <path id="DejaVuSans-74" d="M 1172 4494 
L 1172 3500 
L 2356 3500 
L 2356 3053 
L 1172 3053 
L 1172 1153 
Q 1172 725 1289 603 
Q 1406 481 1766 481 
L 2356 481 
L 2356 0 
L 1766 0 
Q 1100 0 847 248 
Q 594 497 594 1153 
L 594 3053 
L 172 3053 
L 172 3500 
L 594 3500 
L 594 4494 
L 1172 4494 
z
" transform="scale(0.015625)"/>
       <path id="DejaVuSans-69" d="M 603 3500 
L 1178 3500 
L 1178 0 
L 603 0 
L 603 3500 
z
M 603 4863 
L 1178 4863 
L 1178 4134 
L 603 4134 
L 603 4863 
z
" transform="scale(0.015625)"/>
       <path id="DejaVuSans-6f" d="M 1959 3097 
Q 1497 3097 1228 2736 
Q 959 2375 959 1747 
Q 959 1119 1226 758 
Q 1494 397 1959 397 
Q 2419 397 2687 759 
Q 2956 1122 2956 1747 
Q 2956 2369 2687 2733 
Q 2419 3097 1959 3097 
z
M 1959 3584 
Q 2709 3584 3137 3096 
Q 3566 2609 3566 1747 
Q 3566 888 3137 398 
Q 2709 -91 1959 -91 
Q 1206 -91 779 398 
Q 353 888 353 1747 
Q 353 2609 779 3096 
Q 1206 3584 1959 3584 
z
" transform="scale(0.015625)"/>
       <path id="DejaVuSans-20" transform="scale(0.015625)"/>
       <path id="DejaVuSans-4e" d="M 628 4666 
L 1478 4666 
L 3547 763 
L 3547 4666 
L 4159 4666 
L 4159 0 
L 3309 0 
L 1241 3903 
L 1241 0 
L 628 0 
L 628 4666 
z
" transform="scale(0.015625)"/>
       <path id="DejaVuSans-75" d="M 544 1381 
L 544 3500 
L 1119 3500 
L 1119 1403 
Q 1119 906 1312 657 
Q 1506 409 1894 409 
Q 2359 409 2629 706 
Q 2900 1003 2900 1516 
L 2900 3500 
L 3475 3500 
L 3475 0 
L 2900 0 
L 2900 538 
Q 2691 219 2414 64 
Q 2138 -91 1772 -91 
Q 1169 -91 856 284 
Q 544 659 544 1381 
z
M 1991 3584 
L 1991 3584 
z
" transform="scale(0.015625)"/>
       <path id="DejaVuSans-6d" d="M 3328 2828 
Q 3544 3216 3844 3400 
Q 4144 3584 4550 3584 
Q 5097 3584 5394 3201 
Q 5691 2819 5691 2113 
L 5691 0 
L 5113 0 
L 5113 2094 
Q 5113 2597 4934 2840 
Q 4756 3084 4391 3084 
Q 3944 3084 3684 2787 
Q 3425 2491 3425 1978 
L 3425 0 
L 2847 0 
L 2847 2094 
Q 2847 2600 2669 2842 
Q 2491 3084 2119 3084 
Q 1678 3084 1418 2786 
Q 1159 2488 1159 1978 
L 1159 0 
L 581 0 
L 581 3500 
L 1159 3500 
L 1159 2956 
Q 1356 3278 1631 3431 
Q 1906 3584 2284 3584 
Q 2666 3584 2933 3390 
Q 3200 3197 3328 2828 
z
" transform="scale(0.015625)"/>
       <path id="DejaVuSans-62" d="M 3116 1747 
Q 3116 2381 2855 2742 
Q 2594 3103 2138 3103 
Q 1681 3103 1420 2742 
Q 1159 2381 1159 1747 
Q 1159 1113 1420 752 
Q 1681 391 2138 391 
Q 2594 391 2855 752 
Q 3116 1113 3116 1747 
z
M 1159 2969 
Q 1341 3281 1617 3432 
Q 1894 3584 2278 3584 
Q 2916 3584 3314 3078 
Q 3713 2572 3713 1747 
Q 3713 922 3314 415 
Q 2916 -91 2278 -91 
Q 1894 -91 1617 61 
Q 1341 213 1159 525 
L 1159 0 
L 581 0 
L 581 4863 
L 1159 4863 
L 1159 2969 
z
" transform="scale(0.015625)"/>
      </defs>
      <use xlink:href="#DejaVuSans-47"/>
      <use xlink:href="#DejaVuSans-65" x="77.490234"/>
      <use xlink:href="#DejaVuSans-6e" x="139.013672"/>
      <use xlink:href="#DejaVuSans-65" x="202.392578"/>
      <use xlink:href="#DejaVuSans-72" x="263.916016"/>
      <use xlink:href="#DejaVuSans-61" x="305.029297"/>
      <use xlink:href="#DejaVuSans-74" x="366.308594"/>
      <use xlink:href="#DejaVuSans-69" x="405.517578"/>
      <use xlink:href="#DejaVuSans-6f" x="433.300781"/>
      <use xlink:href="#DejaVuSans-6e" x="494.482422"/>
      <use xlink:href="#DejaVuSans-20" x="557.861328"/>
      <use xlink:href="#DejaVuSans-4e" x="589.648438"/>
      <use xlink:href="#DejaVuSans-75" x="664.453125"/>
      <use xlink:href="#DejaVuSans-6d" x="727.832031"/>
      <use xlink:href="#DejaVuSans-62" x="825.244141"/>
      <use xlink:href="#DejaVuSans-65" x="888.720703"/>
      <use xlink:href="#DejaVuSans-72" x="950.244141"/>
     </g>
    </g>
   </g>
   <g id="matplotlib.axis_2">
    <g id="ytick_1">
     <g id="line2d_13">
      <path d="M 69.23125 261.214125 
L 426.35125 261.214125 
" clip-path="url(#pec744263a6)" style="fill: none; stroke: #b0b0b0; stroke-width: 0.8; stroke-linecap: square"/>
     </g>
     <g id="line2d_14">
      <defs>
       <path id="m2a29364aec" d="M 0 0 
L -3.5 0 
" style="stroke: #000000; stroke-width: 0.8"/>
      </defs>
      <g>
       <use xlink:href="#m2a29364aec" x="69.23125" y="261.214125" style="stroke: #000000; stroke-width: 0.8"/>
      </g>
     </g>
     <g id="text_8">
      <!-- 0.99955 -->
      <g transform="translate(20.878125 265.013344)scale(0.1 -0.1)">
       <defs>
        <path id="DejaVuSans-2e" d="M 684 794 
L 1344 794 
L 1344 0 
L 684 0 
L 684 794 
z
" transform="scale(0.015625)"/>
        <path id="DejaVuSans-39" d="M 703 97 
L 703 672 
Q 941 559 1184 500 
Q 1428 441 1663 441 
Q 2288 441 2617 861 
Q 2947 1281 2994 2138 
Q 2813 1869 2534 1725 
Q 2256 1581 1919 1581 
Q 1219 1581 811 2004 
Q 403 2428 403 3163 
Q 403 3881 828 4315 
Q 1253 4750 1959 4750 
Q 2769 4750 3195 4129 
Q 3622 3509 3622 2328 
Q 3622 1225 3098 567 
Q 2575 -91 1691 -91 
Q 1453 -91 1209 -44 
Q 966 3 703 97 
z
M 1959 2075 
Q 2384 2075 2632 2365 
Q 2881 2656 2881 3163 
Q 2881 3666 2632 3958 
Q 2384 4250 1959 4250 
Q 1534 4250 1286 3958 
Q 1038 3666 1038 3163 
Q 1038 2656 1286 2365 
Q 1534 2075 1959 2075 
z
" transform="scale(0.015625)"/>
       </defs>
       <use xlink:href="#DejaVuSans-30"/>
       <use xlink:href="#DejaVuSans-2e" x="63.623047"/>
       <use xlink:href="#DejaVuSans-39" x="95.410156"/>
       <use xlink:href="#DejaVuSans-39" x="159.033203"/>
       <use xlink:href="#DejaVuSans-39" x="222.65625"/>
       <use xlink:href="#DejaVuSans-35" x="286.279297"/>
       <use xlink:href="#DejaVuSans-35" x="349.902344"/>
      </g>
     </g>
    </g>
    <g id="ytick_2">
     <g id="line2d_15">
      <path d="M 69.23125 223.414125 
L 426.35125 223.414125 
" clip-path="url(#pec744263a6)" style="fill: none; stroke: #b0b0b0; stroke-width: 0.8; stroke-linecap: square"/>
     </g>
     <g id="line2d_16">
      <g>
       <use xlink:href="#m2a29364aec" x="69.23125" y="223.414125" style="stroke: #000000; stroke-width: 0.8"/>
      </g>
     </g>
     <g id="text_9">
      <!-- 0.99960 -->
      <g transform="translate(20.878125 227.213344)scale(0.1 -0.1)">
       <defs>
        <path id="DejaVuSans-36" d="M 2113 2584 
Q 1688 2584 1439 2293 
Q 1191 2003 1191 1497 
Q 1191 994 1439 701 
Q 1688 409 2113 409 
Q 2538 409 2786 701 
Q 3034 994 3034 1497 
Q 3034 2003 2786 2293 
Q 2538 2584 2113 2584 
z
M 3366 4563 
L 3366 3988 
Q 3128 4100 2886 4159 
Q 2644 4219 2406 4219 
Q 1781 4219 1451 3797 
Q 1122 3375 1075 2522 
Q 1259 2794 1537 2939 
Q 1816 3084 2150 3084 
Q 2853 3084 3261 2657 
Q 3669 2231 3669 1497 
Q 3669 778 3244 343 
Q 2819 -91 2113 -91 
Q 1303 -91 875 529 
Q 447 1150 447 2328 
Q 447 3434 972 4092 
Q 1497 4750 2381 4750 
Q 2619 4750 2861 4703 
Q 3103 4656 3366 4563 
z
" transform="scale(0.015625)"/>
       </defs>
       <use xlink:href="#DejaVuSans-30"/>
       <use xlink:href="#DejaVuSans-2e" x="63.623047"/>
       <use xlink:href="#DejaVuSans-39" x="95.410156"/>
       <use xlink:href="#DejaVuSans-39" x="159.033203"/>
       <use xlink:href="#DejaVuSans-39" x="222.65625"/>
       <use xlink:href="#DejaVuSans-36" x="286.279297"/>
       <use xlink:href="#DejaVuSans-30" x="349.902344"/>
      </g>
     </g>
    </g>
    <g id="ytick_3">
     <g id="line2d_17">
      <path d="M 69.23125 185.614125 
L 426.35125 185.614125 
" clip-path="url(#pec744263a6)" style="fill: none; stroke: #b0b0b0; stroke-width: 0.8; stroke-linecap: square"/>
     </g>
     <g id="line2d_18">
      <g>
       <use xlink:href="#m2a29364aec" x="69.23125" y="185.614125" style="stroke: #000000; stroke-width: 0.8"/>
      </g>
     </g>
     <g id="text_10">
      <!-- 0.99965 -->
      <g transform="translate(20.878125 189.413344)scale(0.1 -0.1)">
       <use xlink:href="#DejaVuSans-30"/>
       <use xlink:href="#DejaVuSans-2e" x="63.623047"/>
       <use xlink:href="#DejaVuSans-39" x="95.410156"/>
       <use xlink:href="#DejaVuSans-39" x="159.033203"/>
       <use xlink:href="#DejaVuSans-39" x="222.65625"/>
       <use xlink:href="#DejaVuSans-36" x="286.279297"/>
       <use xlink:href="#DejaVuSans-35" x="349.902344"/>
      </g>
     </g>
    </g>
    <g id="ytick_4">
     <g id="line2d_19">
      <path d="M 69.23125 147.814125 
L 426.35125 147.814125 
" clip-path="url(#pec744263a6)" style="fill: none; stroke: #b0b0b0; stroke-width: 0.8; stroke-linecap: square"/>
     </g>
     <g id="line2d_20">
      <g>
       <use xlink:href="#m2a29364aec" x="69.23125" y="147.814125" style="stroke: #000000; stroke-width: 0.8"/>
      </g>
     </g>
     <g id="text_11">
      <!-- 0.99970 -->
      <g transform="translate(20.878125 151.613344)scale(0.1 -0.1)">
       <defs>
        <path id="DejaVuSans-37" d="M 525 4666 
L 3525 4666 
L 3525 4397 
L 1831 0 
L 1172 0 
L 2766 4134 
L 525 4134 
L 525 4666 
z
" transform="scale(0.015625)"/>
       </defs>
       <use xlink:href="#DejaVuSans-30"/>
       <use xlink:href="#DejaVuSans-2e" x="63.623047"/>
       <use xlink:href="#DejaVuSans-39" x="95.410156"/>
       <use xlink:href="#DejaVuSans-39" x="159.033203"/>
       <use xlink:href="#DejaVuSans-39" x="222.65625"/>
       <use xlink:href="#DejaVuSans-37" x="286.279297"/>
       <use xlink:href="#DejaVuSans-30" x="349.902344"/>
      </g>
     </g>
    </g>
    <g id="ytick_5">
     <g id="line2d_21">
      <path d="M 69.23125 110.014125 
L 426.35125 110.014125 
" clip-path="url(#pec744263a6)" style="fill: none; stroke: #b0b0b0; stroke-width: 0.8; stroke-linecap: square"/>
     </g>
     <g id="line2d_22">
      <g>
       <use xlink:href="#m2a29364aec" x="69.23125" y="110.014125" style="stroke: #000000; stroke-width: 0.8"/>
      </g>
     </g>
     <g id="text_12">
      <!-- 0.99975 -->
      <g transform="translate(20.878125 113.813344)scale(0.1 -0.1)">
       <use xlink:href="#DejaVuSans-30"/>
       <use xlink:href="#DejaVuSans-2e" x="63.623047"/>
       <use xlink:href="#DejaVuSans-39" x="95.410156"/>
       <use xlink:href="#DejaVuSans-39" x="159.033203"/>
       <use xlink:href="#DejaVuSans-39" x="222.65625"/>
       <use xlink:href="#DejaVuSans-37" x="286.279297"/>
       <use xlink:href="#DejaVuSans-35" x="349.902344"/>
      </g>
     </g>
    </g>
    <g id="ytick_6">
     <g id="line2d_23">
      <path d="M 69.23125 72.214125 
L 426.35125 72.214125 
" clip-path="url(#pec744263a6)" style="fill: none; stroke: #b0b0b0; stroke-width: 0.8; stroke-linecap: square"/>
     </g>
     <g id="line2d_24">
      <g>
       <use xlink:href="#m2a29364aec" x="69.23125" y="72.214125" style="stroke: #000000; stroke-width: 0.8"/>
      </g>
     </g>
     <g id="text_13">
      <!-- 0.99980 -->
      <g transform="translate(20.878125 76.013344)scale(0.1 -0.1)">
       <defs>
        <path id="DejaVuSans-38" d="M 2034 2216 
Q 1584 2216 1326 1975 
Q 1069 1734 1069 1313 
Q 1069 891 1326 650 
Q 1584 409 2034 409 
Q 2484 409 2743 651 
Q 3003 894 3003 1313 
Q 3003 1734 2745 1975 
Q 2488 2216 2034 2216 
z
M 1403 2484 
Q 997 2584 770 2862 
Q 544 3141 544 3541 
Q 544 4100 942 4425 
Q 1341 4750 2034 4750 
Q 2731 4750 3128 4425 
Q 3525 4100 3525 3541 
Q 3525 3141 3298 2862 
Q 3072 2584 2669 2484 
Q 3125 2378 3379 2068 
Q 3634 1759 3634 1313 
Q 3634 634 3220 271 
Q 2806 -91 2034 -91 
Q 1263 -91 848 271 
Q 434 634 434 1313 
Q 434 1759 690 2068 
Q 947 2378 1403 2484 
z
M 1172 3481 
Q 1172 3119 1398 2916 
Q 1625 2713 2034 2713 
Q 2441 2713 2670 2916 
Q 2900 3119 2900 3481 
Q 2900 3844 2670 4047 
Q 2441 4250 2034 4250 
Q 1625 4250 1398 4047 
Q 1172 3844 1172 3481 
z
" transform="scale(0.015625)"/>
       </defs>
       <use xlink:href="#DejaVuSans-30"/>
       <use xlink:href="#DejaVuSans-2e" x="63.623047"/>
       <use xlink:href="#DejaVuSans-39" x="95.410156"/>
       <use xlink:href="#DejaVuSans-39" x="159.033203"/>
       <use xlink:href="#DejaVuSans-39" x="222.65625"/>
       <use xlink:href="#DejaVuSans-38" x="286.279297"/>
       <use xlink:href="#DejaVuSans-30" x="349.902344"/>
      </g>
     </g>
    </g>
    <g id="ytick_7">
     <g id="line2d_25">
      <path d="M 69.23125 34.414125 
L 426.35125 34.414125 
" clip-path="url(#pec744263a6)" style="fill: none; stroke: #b0b0b0; stroke-width: 0.8; stroke-linecap: square"/>
     </g>
     <g id="line2d_26">
      <g>
       <use xlink:href="#m2a29364aec" x="69.23125" y="34.414125" style="stroke: #000000; stroke-width: 0.8"/>
      </g>
     </g>
     <g id="text_14">
      <!-- 0.99985 -->
      <g transform="translate(20.878125 38.213344)scale(0.1 -0.1)">
       <use xlink:href="#DejaVuSans-30"/>
       <use xlink:href="#DejaVuSans-2e" x="63.623047"/>
       <use xlink:href="#DejaVuSans-39" x="95.410156"/>
       <use xlink:href="#DejaVuSans-39" x="159.033203"/>
       <use xlink:href="#DejaVuSans-39" x="222.65625"/>
       <use xlink:href="#DejaVuSans-38" x="286.279297"/>
       <use xlink:href="#DejaVuSans-35" x="349.902344"/>
      </g>
     </g>
    </g>
    <g id="text_15">
     <!-- Value -->
     <g transform="translate(14.798437 169.105375)rotate(-90)scale(0.1 -0.1)">
      <defs>
       <path id="DejaVuSans-56" d="M 1831 0 
L 50 4666 
L 709 4666 
L 2188 738 
L 3669 4666 
L 4325 4666 
L 2547 0 
L 1831 0 
z
" transform="scale(0.015625)"/>
       <path id="DejaVuSans-6c" d="M 603 4863 
L 1178 4863 
L 1178 0 
L 603 0 
L 603 4863 
z
" transform="scale(0.015625)"/>
      </defs>
      <use xlink:href="#DejaVuSans-56"/>
      <use xlink:href="#DejaVuSans-61" x="60.658203"/>
      <use xlink:href="#DejaVuSans-6c" x="121.9375"/>
      <use xlink:href="#DejaVuSans-75" x="149.720703"/>
      <use xlink:href="#DejaVuSans-65" x="213.099609"/>
     </g>
    </g>
   </g>
   <g id="line2d_27">
    <path d="M 85.463977 94.894125 
L 86.114588 147.814125 
L 86.765198 110.014125 
L 87.415808 125.134125 
L 88.066419 110.014125 
L 88.717029 132.694125 
L 89.367639 162.934125 
L 90.018249 49.534125 
L 90.66886 125.134125 
L 91.31947 132.694125 
L 91.97008 102.454125 
L 92.620691 132.694125 
L 93.271301 185.614125 
L 93.921911 125.134125 
L 94.572522 117.574125 
L 95.223132 34.414125 
L 95.873742 140.254125 
L 96.524353 110.014125 
L 97.174963 162.934125 
L 97.825573 102.454125 
L 98.476184 57.094125 
L 99.126794 102.454125 
L 99.777404 49.534125 
L 100.428014 193.174125 
L 101.078625 147.814125 
L 101.729235 132.694125 
L 102.379845 132.694125 
L 103.030456 178.054125 
L 103.681066 87.334125 
L 104.331676 117.574125 
L 104.982287 140.254125 
L 105.632897 170.494125 
L 106.283507 94.894125 
L 106.934118 170.494125 
L 107.584728 117.574125 
L 108.235338 117.574125 
L 108.885948 132.694125 
L 109.536559 178.054125 
L 110.187169 208.294125 
L 110.837779 87.334125 
L 111.48839 64.654125 
L 112.139 132.694125 
L 112.78961 140.254125 
L 113.440221 110.014125 
L 114.090831 178.054125 
L 114.741441 110.014125 
L 115.392052 170.494125 
L 116.042662 200.734125 
L 116.693272 140.254125 
L 117.343883 223.414125 
L 117.994493 162.934125 
L 118.645103 185.614125 
L 119.295713 94.894125 
L 119.946324 117.574125 
L 120.596934 110.014125 
L 121.247544 110.014125 
L 121.898155 215.854125 
L 122.548765 117.574125 
L 123.199375 102.454125 
L 123.849986 125.134125 
L 124.500596 132.694125 
L 125.801817 193.174125 
L 127.103037 208.294125 
L 127.753648 162.934125 
L 128.404258 253.654125 
L 129.054868 140.254125 
L 129.705478 178.054125 
L 130.356089 246.094125 
L 131.006699 178.054125 
L 131.657309 170.494125 
L 132.30792 155.374125 
L 132.95853 57.094125 
L 133.60914 64.654125 
L 134.259751 193.174125 
L 134.910361 117.574125 
L 135.560971 79.774125 
L 136.211582 147.814125 
L 136.862192 170.494125 
L 137.512802 110.014125 
L 138.163413 117.574125 
L 138.814023 64.654125 
L 139.464633 193.174125 
L 140.115243 117.574125 
L 140.765854 117.574125 
L 141.416464 72.214125 
L 142.717685 200.734125 
L 143.368295 155.374125 
L 144.018905 125.134125 
L 144.669516 230.974125 
L 145.320126 64.654125 
L 145.970736 94.894125 
L 146.621347 200.734125 
L 147.271957 155.374125 
L 147.922567 94.894125 
L 148.573177 147.814125 
L 149.223788 110.014125 
L 149.874398 140.254125 
L 150.525008 94.894125 
L 151.175619 94.894125 
L 151.826229 147.814125 
L 152.476839 117.574125 
L 153.12745 185.614125 
L 153.77806 178.054125 
L 154.42867 193.174125 
L 155.079281 110.014125 
L 155.729891 155.374125 
L 156.380501 72.214125 
L 157.031112 140.254125 
L 157.681722 79.774125 
L 158.332332 125.134125 
L 158.982942 94.894125 
L 159.633553 170.494125 
L 160.284163 125.134125 
L 160.934773 170.494125 
L 161.585384 162.934125 
L 162.235994 110.014125 
L 162.886604 94.894125 
L 163.537215 132.694125 
L 164.187825 125.134125 
L 164.838435 162.934125 
L 165.489046 102.454125 
L 166.139656 125.134125 
L 166.790266 87.334125 
L 167.440877 155.374125 
L 168.091487 147.814125 
L 168.742097 193.174125 
L 169.392707 155.374125 
L 170.043318 162.934125 
L 170.693928 132.694125 
L 171.344538 155.374125 
L 171.995149 276.334125 
L 172.645759 117.574125 
L 173.94698 162.934125 
L 174.59759 102.454125 
L 175.2482 110.014125 
L 175.898811 125.134125 
L 176.549421 102.454125 
L 177.200031 140.254125 
L 177.850642 110.014125 
L 178.501252 110.014125 
L 179.151862 147.814125 
L 179.802472 147.814125 
L 180.453083 79.774125 
L 181.103693 178.054125 
L 181.754303 125.134125 
L 182.404914 140.254125 
L 183.055524 117.574125 
L 183.706134 110.014125 
L 184.356745 57.094125 
L 185.007355 125.134125 
L 185.657965 155.374125 
L 186.308576 178.054125 
L 186.959186 223.414125 
L 188.260406 140.254125 
L 188.911017 185.614125 
L 189.561627 117.574125 
L 190.212237 72.214125 
L 190.862848 155.374125 
L 191.513458 170.494125 
L 192.164068 117.574125 
L 192.814679 215.854125 
L 193.465289 208.294125 
L 194.115899 117.574125 
L 194.76651 178.054125 
L 195.41712 178.054125 
L 196.06773 94.894125 
L 196.718341 94.894125 
L 197.368951 170.494125 
L 198.019561 170.494125 
L 198.670171 147.814125 
L 199.320782 200.734125 
L 199.971392 147.814125 
L 200.622002 110.014125 
L 201.272613 87.334125 
L 201.923223 117.574125 
L 202.573833 110.014125 
L 203.224444 117.574125 
L 203.875054 170.494125 
L 204.525664 125.134125 
L 205.176275 178.054125 
L 206.477495 147.814125 
L 207.128106 41.974125 
L 207.778716 178.054125 
L 208.429326 87.334125 
L 209.079936 87.334125 
L 209.730547 155.374125 
L 210.381157 79.774125 
L 211.031767 155.374125 
L 211.682378 94.894125 
L 212.332988 147.814125 
L 212.983598 178.054125 
L 213.634209 155.374125 
L 214.284819 170.494125 
L 214.935429 170.494125 
L 215.58604 110.014125 
L 216.23665 110.014125 
L 216.88726 193.174125 
L 217.537871 178.054125 
L 218.188481 147.814125 
L 218.839091 110.014125 
L 219.489701 162.934125 
L 220.140312 170.494125 
L 220.790922 200.734125 
L 221.441532 64.654125 
L 222.092143 49.534125 
L 222.742753 147.814125 
L 223.393363 132.694125 
L 224.043974 125.134125 
L 224.694584 94.894125 
L 225.345194 110.014125 
L 225.995805 246.094125 
L 226.646415 215.854125 
L 227.297025 155.374125 
L 227.947635 185.614125 
L 228.598246 200.734125 
L 229.248856 155.374125 
L 229.899466 155.374125 
L 230.550077 117.574125 
L 231.200687 94.894125 
L 231.851297 87.334125 
L 232.501908 110.014125 
L 233.152518 125.134125 
L 234.453739 125.134125 
L 235.104349 117.574125 
L 235.754959 64.654125 
L 236.40557 162.934125 
L 237.05618 72.214125 
L 237.70679 147.814125 
L 239.008011 117.574125 
L 239.658621 170.494125 
L 240.309231 147.814125 
L 240.959842 178.054125 
L 241.610452 125.134125 
L 242.261062 140.254125 
L 242.911673 162.934125 
L 243.562283 125.134125 
L 244.212893 132.694125 
L 245.514114 102.454125 
L 246.164724 132.694125 
L 246.815335 246.094125 
L 248.116555 79.774125 
L 248.767165 185.614125 
L 249.417776 87.334125 
L 250.068386 132.694125 
L 250.718996 79.774125 
L 251.369607 57.094125 
L 252.020217 170.494125 
L 252.670827 147.814125 
L 253.321438 155.374125 
L 253.972048 147.814125 
L 254.622658 117.574125 
L 255.273269 125.134125 
L 255.923879 117.574125 
L 256.574489 87.334125 
L 257.2251 178.054125 
L 257.87571 132.694125 
L 258.52632 117.574125 
L 259.17693 132.694125 
L 259.827541 155.374125 
L 260.478151 102.454125 
L 261.779372 178.054125 
L 262.429982 125.134125 
L 263.080592 162.934125 
L 263.731203 178.054125 
L 264.381813 162.934125 
L 265.032423 185.614125 
L 265.683034 72.214125 
L 266.333644 246.094125 
L 266.984254 125.134125 
L 267.634865 72.214125 
L 268.285475 132.694125 
L 268.936085 125.134125 
L 269.586695 147.814125 
L 270.237306 117.574125 
L 270.887916 162.934125 
L 271.538526 125.134125 
L 272.189137 193.174125 
L 272.839747 140.254125 
L 273.490357 132.694125 
L 274.140968 110.014125 
L 274.791578 125.134125 
L 275.442188 185.614125 
L 276.092799 110.014125 
L 276.743409 57.094125 
L 277.394019 140.254125 
L 278.044629 132.694125 
L 278.69524 94.894125 
L 279.34585 185.614125 
L 280.647071 57.094125 
L 281.297681 147.814125 
L 281.948291 147.814125 
L 282.598902 193.174125 
L 283.249512 193.174125 
L 283.900122 110.014125 
L 284.550733 117.574125 
L 285.201343 110.014125 
L 285.851953 132.694125 
L 286.502564 87.334125 
L 287.153174 110.014125 
L 287.803784 72.214125 
L 288.454394 155.374125 
L 289.105005 110.014125 
L 289.755615 170.494125 
L 290.406225 87.334125 
L 291.056836 140.254125 
L 291.707446 208.294125 
L 292.358056 140.254125 
L 293.008667 117.574125 
L 293.659277 110.014125 
L 294.309887 87.334125 
L 294.960498 117.574125 
L 295.611108 215.854125 
L 296.261718 162.934125 
L 296.912329 162.934125 
L 297.562939 200.734125 
L 298.213549 72.214125 
L 298.864159 155.374125 
L 299.51477 110.014125 
L 300.81599 140.254125 
L 301.466601 64.654125 
L 302.117211 117.574125 
L 302.767821 117.574125 
L 303.418432 110.014125 
L 304.069042 72.214125 
L 304.719652 185.614125 
L 305.370263 162.934125 
L 306.020873 147.814125 
L 306.671483 178.054125 
L 307.322094 132.694125 
L 307.972704 110.014125 
L 308.623314 110.014125 
L 309.273924 94.894125 
L 309.924535 64.654125 
L 310.575145 132.694125 
L 311.225755 230.974125 
L 311.876366 140.254125 
L 312.526976 87.334125 
L 313.177586 170.494125 
L 313.828197 185.614125 
L 314.478807 147.814125 
L 315.129417 117.574125 
L 315.780028 110.014125 
L 316.430638 147.814125 
L 317.081248 125.134125 
L 317.731858 147.814125 
L 318.382469 110.014125 
L 319.033079 102.454125 
L 319.683689 132.694125 
L 320.3343 215.854125 
L 320.98491 94.894125 
L 322.286131 125.134125 
L 322.936741 147.814125 
L 323.587351 110.014125 
L 324.237962 132.694125 
L 324.888572 178.054125 
L 325.539182 125.134125 
L 326.189793 132.694125 
L 326.840403 94.894125 
L 327.491013 110.014125 
L 328.141623 178.054125 
L 328.792234 87.334125 
L 329.442844 185.614125 
L 330.093454 140.254125 
L 330.744065 132.694125 
L 331.394675 79.774125 
L 332.045285 110.014125 
L 332.695896 49.534125 
L 333.346506 110.014125 
L 333.997116 49.534125 
L 334.647727 155.374125 
L 335.298337 155.374125 
L 335.948947 117.574125 
L 336.599558 170.494125 
L 337.250168 155.374125 
L 337.900778 87.334125 
L 338.551388 155.374125 
L 339.852609 170.494125 
L 341.15383 125.134125 
L 341.80444 125.134125 
L 342.45505 162.934125 
L 343.105661 125.134125 
L 343.756271 140.254125 
L 344.406881 87.334125 
L 345.057492 79.774125 
L 345.708102 155.374125 
L 346.358712 193.174125 
L 347.009323 140.254125 
L 347.659933 147.814125 
L 348.310543 132.694125 
L 348.961153 87.334125 
L 349.611764 79.774125 
L 350.262374 79.774125 
L 350.912984 64.654125 
L 351.563595 110.014125 
L 352.214205 125.134125 
L 352.864815 200.734125 
L 353.515426 110.014125 
L 354.166036 185.614125 
L 354.816646 185.614125 
L 355.467257 87.334125 
L 356.117867 147.814125 
L 356.768477 117.574125 
L 358.069698 132.694125 
L 358.720308 162.934125 
L 360.021529 87.334125 
L 360.672139 110.014125 
L 361.322749 117.574125 
L 361.97336 178.054125 
L 362.62397 102.454125 
L 363.27458 110.014125 
L 363.925191 147.814125 
L 364.575801 41.974125 
L 365.226411 162.934125 
L 365.877022 140.254125 
L 366.527632 147.814125 
L 367.828852 132.694125 
L 368.479463 155.374125 
L 369.130073 155.374125 
L 369.780683 147.814125 
L 370.431294 170.494125 
L 371.081904 140.254125 
L 371.732514 178.054125 
L 372.383125 110.014125 
L 373.033735 132.694125 
L 373.684345 125.134125 
L 374.334956 140.254125 
L 374.985566 125.134125 
L 375.636176 125.134125 
L 376.286787 117.574125 
L 376.937397 87.334125 
L 377.588007 140.254125 
L 378.238617 102.454125 
L 378.889228 193.174125 
L 379.539838 140.254125 
L 380.190448 170.494125 
L 380.841059 125.134125 
L 381.491669 110.014125 
L 382.142279 102.454125 
L 382.79289 147.814125 
L 383.4435 170.494125 
L 384.09411 162.934125 
L 384.744721 193.174125 
L 385.395331 87.334125 
L 386.045941 94.894125 
L 387.347162 208.294125 
L 387.997772 110.014125 
L 388.648382 125.134125 
L 389.298993 193.174125 
L 389.949603 125.134125 
L 390.600213 117.574125 
L 391.250824 102.454125 
L 391.901434 79.774125 
L 392.552044 185.614125 
L 393.202655 155.374125 
L 393.853265 110.014125 
L 394.503875 140.254125 
L 395.805096 125.134125 
L 397.106316 125.134125 
L 397.756927 162.934125 
L 398.407537 140.254125 
L 399.058147 64.654125 
L 399.708758 170.494125 
L 400.359368 110.014125 
L 401.009978 200.734125 
L 401.660589 185.614125 
L 402.961809 110.014125 
L 403.61242 162.934125 
L 404.26303 155.374125 
L 404.91364 155.374125 
L 405.564251 117.574125 
L 406.214861 117.574125 
L 406.865471 185.614125 
L 407.516081 79.774125 
L 408.166692 125.134125 
L 408.817302 238.534125 
L 409.467912 147.814125 
L 410.118523 155.374125 
L 410.118523 155.374125 
" clip-path="url(#pec744263a6)" style="fill: none; stroke: #0000ff; stroke-width: 2; stroke-linecap: square"/>
   </g>
   <g id="line2d_28">
    <path d="M 85.463977 94.894125 
L 86.114588 147.814125 
L 86.765198 110.014125 
L 87.415808 125.134125 
L 88.066419 110.014125 
L 88.717029 132.694125 
L 89.367639 162.934125 
L 90.018249 49.534125 
L 90.66886 125.134125 
L 91.31947 132.694125 
L 91.97008 102.454125 
L 92.620691 132.694125 
L 93.271301 185.614125 
L 93.921911 125.134125 
L 94.572522 117.574125 
L 95.223132 34.414125 
L 95.873742 140.254125 
L 96.524353 110.014125 
L 97.174963 162.934125 
L 97.825573 102.454125 
L 98.476184 57.094125 
L 99.126794 102.454125 
L 99.777404 49.534125 
L 100.428014 193.174125 
L 101.078625 147.814125 
L 101.729235 132.694125 
L 102.379845 132.694125 
L 103.030456 178.054125 
L 103.681066 87.334125 
L 104.331676 117.574125 
L 104.982287 140.254125 
L 105.632897 170.494125 
L 106.283507 94.894125 
L 106.934118 170.494125 
L 107.584728 117.574125 
L 108.235338 117.574125 
L 108.885948 132.694125 
L 109.536559 178.054125 
L 110.187169 208.294125 
L 110.837779 87.334125 
L 111.48839 64.654125 
L 112.139 132.694125 
L 112.78961 140.254125 
L 113.440221 110.014125 
L 114.090831 178.054125 
L 114.741441 110.014125 
L 115.392052 170.494125 
L 116.042662 200.734125 
L 116.693272 140.254125 
L 117.343883 223.414125 
L 117.994493 162.934125 
L 118.645103 185.614125 
L 119.295713 94.894125 
L 119.946324 117.574125 
L 120.596934 110.014125 
L 121.247544 110.014125 
L 121.898155 215.854125 
L 122.548765 117.574125 
L 123.199375 102.454125 
L 123.849986 125.134125 
L 124.500596 132.694125 
L 125.801817 193.174125 
L 127.103037 208.294125 
L 127.753648 162.934125 
L 128.404258 253.654125 
L 129.054868 140.254125 
L 129.705478 178.054125 
L 130.356089 246.094125 
L 131.006699 178.054125 
L 131.657309 170.494125 
L 132.30792 155.374125 
L 132.95853 57.094125 
L 133.60914 64.654125 
L 134.259751 193.174125 
L 134.910361 117.574125 
L 135.560971 79.774125 
L 136.211582 147.814125 
L 136.862192 170.494125 
L 137.512802 110.014125 
L 138.163413 117.574125 
L 138.814023 64.654125 
L 139.464633 193.174125 
L 140.115243 117.574125 
L 140.765854 117.574125 
L 141.416464 72.214125 
L 142.717685 200.734125 
L 143.368295 155.374125 
L 144.018905 125.134125 
L 144.669516 230.974125 
L 145.320126 64.654125 
L 145.970736 94.894125 
L 146.621347 200.734125 
L 147.271957 155.374125 
L 147.922567 94.894125 
L 148.573177 147.814125 
L 149.223788 110.014125 
L 149.874398 140.254125 
L 150.525008 94.894125 
L 151.175619 94.894125 
L 151.826229 147.814125 
L 152.476839 117.574125 
L 153.12745 185.614125 
L 153.77806 178.054125 
L 154.42867 193.174125 
L 155.079281 110.014125 
L 155.729891 155.374125 
L 156.380501 72.214125 
L 157.031112 140.254125 
L 157.681722 79.774125 
L 158.332332 125.134125 
L 158.982942 94.894125 
L 159.633553 170.494125 
L 160.284163 125.134125 
L 160.934773 170.494125 
L 161.585384 162.934125 
L 162.235994 110.014125 
L 162.886604 94.894125 
L 163.537215 132.694125 
L 164.187825 125.134125 
L 164.838435 162.934125 
L 165.489046 102.454125 
L 166.139656 125.134125 
L 166.790266 87.334125 
L 167.440877 155.374125 
L 168.091487 147.814125 
L 168.742097 193.174125 
L 169.392707 155.374125 
L 170.043318 162.934125 
L 170.693928 132.694125 
L 171.344538 155.374125 
L 171.995149 276.334125 
L 172.645759 117.574125 
L 173.94698 162.934125 
L 174.59759 102.454125 
L 175.2482 110.014125 
L 175.898811 125.134125 
L 176.549421 102.454125 
L 177.200031 140.254125 
L 177.850642 110.014125 
L 178.501252 110.014125 
L 179.151862 147.814125 
L 179.802472 147.814125 
L 180.453083 79.774125 
L 181.103693 178.054125 
L 181.754303 125.134125 
L 182.404914 140.254125 
L 183.055524 117.574125 
L 183.706134 110.014125 
L 184.356745 57.094125 
L 185.007355 125.134125 
L 185.657965 155.374125 
L 186.308576 178.054125 
L 186.959186 223.414125 
L 188.260406 140.254125 
L 188.911017 185.614125 
L 189.561627 117.574125 
L 190.212237 72.214125 
L 190.862848 155.374125 
L 191.513458 170.494125 
L 192.164068 117.574125 
L 192.814679 215.854125 
L 193.465289 208.294125 
L 194.115899 117.574125 
L 194.76651 178.054125 
L 195.41712 178.054125 
L 196.06773 94.894125 
L 196.718341 94.894125 
L 197.368951 170.494125 
L 198.019561 170.494125 
L 198.670171 147.814125 
L 199.320782 200.734125 
L 199.971392 147.814125 
L 200.622002 110.014125 
L 201.272613 87.334125 
L 201.923223 117.574125 
L 202.573833 110.014125 
L 203.224444 117.574125 
L 203.875054 170.494125 
L 204.525664 125.134125 
L 205.176275 178.054125 
L 206.477495 147.814125 
L 207.128106 41.974125 
L 207.778716 178.054125 
L 208.429326 87.334125 
L 209.079936 87.334125 
L 209.730547 155.374125 
L 210.381157 79.774125 
L 211.031767 155.374125 
L 211.682378 94.894125 
L 212.332988 147.814125 
L 212.983598 178.054125 
L 213.634209 155.374125 
L 214.284819 170.494125 
L 214.935429 170.494125 
L 215.58604 110.014125 
L 216.23665 110.014125 
L 216.88726 193.174125 
L 217.537871 178.054125 
L 218.188481 147.814125 
L 218.839091 110.014125 
L 219.489701 162.934125 
L 220.140312 170.494125 
L 220.790922 200.734125 
L 221.441532 64.654125 
L 222.092143 49.534125 
L 222.742753 147.814125 
L 223.393363 132.694125 
L 224.043974 125.134125 
L 224.694584 94.894125 
L 225.345194 110.014125 
L 225.995805 246.094125 
L 226.646415 215.854125 
L 227.297025 155.374125 
L 227.947635 185.614125 
L 228.598246 200.734125 
L 229.248856 155.374125 
L 229.899466 155.374125 
L 230.550077 117.574125 
L 231.200687 94.894125 
L 231.851297 87.334125 
L 232.501908 110.014125 
L 233.152518 125.134125 
L 234.453739 125.134125 
L 235.104349 117.574125 
L 235.754959 64.654125 
L 236.40557 162.934125 
L 237.05618 72.214125 
L 237.70679 147.814125 
L 239.008011 117.574125 
L 239.658621 170.494125 
L 240.309231 147.814125 
L 240.959842 178.054125 
L 241.610452 125.134125 
L 242.261062 140.254125 
L 242.911673 162.934125 
L 243.562283 125.134125 
L 244.212893 132.694125 
L 245.514114 102.454125 
L 246.164724 132.694125 
L 246.815335 246.094125 
L 248.116555 79.774125 
L 248.767165 185.614125 
L 249.417776 87.334125 
L 250.068386 132.694125 
L 250.718996 79.774125 
L 251.369607 57.094125 
L 252.020217 170.494125 
L 252.670827 147.814125 
L 253.321438 155.374125 
L 253.972048 147.814125 
L 254.622658 117.574125 
L 255.273269 125.134125 
L 255.923879 117.574125 
L 256.574489 87.334125 
L 257.2251 178.054125 
L 257.87571 132.694125 
L 258.52632 117.574125 
L 259.17693 132.694125 
L 259.827541 155.374125 
L 260.478151 102.454125 
L 261.779372 178.054125 
L 262.429982 125.134125 
L 263.080592 162.934125 
L 263.731203 178.054125 
L 264.381813 162.934125 
L 265.032423 185.614125 
L 265.683034 72.214125 
L 266.333644 246.094125 
L 266.984254 125.134125 
L 267.634865 72.214125 
L 268.285475 132.694125 
L 268.936085 125.134125 
L 269.586695 147.814125 
L 270.237306 117.574125 
L 270.887916 162.934125 
L 271.538526 125.134125 
L 272.189137 193.174125 
L 272.839747 140.254125 
L 273.490357 132.694125 
L 274.140968 110.014125 
L 274.791578 125.134125 
L 275.442188 185.614125 
L 276.092799 110.014125 
L 276.743409 57.094125 
L 277.394019 140.254125 
L 278.044629 132.694125 
L 278.69524 94.894125 
L 279.34585 185.614125 
L 280.647071 57.094125 
L 281.297681 147.814125 
L 281.948291 147.814125 
L 282.598902 193.174125 
L 283.249512 193.174125 
L 283.900122 110.014125 
L 284.550733 117.574125 
L 285.201343 110.014125 
L 285.851953 132.694125 
L 286.502564 87.334125 
L 287.153174 110.014125 
L 287.803784 72.214125 
L 288.454394 155.374125 
L 289.105005 110.014125 
L 289.755615 170.494125 
L 290.406225 87.334125 
L 291.056836 140.254125 
L 291.707446 208.294125 
L 292.358056 140.254125 
L 293.008667 117.574125 
L 293.659277 110.014125 
L 294.309887 87.334125 
L 294.960498 117.574125 
L 295.611108 215.854125 
L 296.261718 162.934125 
L 296.912329 162.934125 
L 297.562939 200.734125 
L 298.213549 72.214125 
L 298.864159 155.374125 
L 299.51477 110.014125 
L 300.81599 140.254125 
L 301.466601 64.654125 
L 302.117211 117.574125 
L 302.767821 117.574125 
L 303.418432 110.014125 
L 304.069042 72.214125 
L 304.719652 185.614125 
L 305.370263 162.934125 
L 306.020873 147.814125 
L 306.671483 178.054125 
L 307.322094 132.694125 
L 307.972704 110.014125 
L 308.623314 110.014125 
L 309.273924 94.894125 
L 309.924535 64.654125 
L 310.575145 132.694125 
L 311.225755 230.974125 
L 311.876366 140.254125 
L 312.526976 87.334125 
L 313.177586 170.494125 
L 313.828197 185.614125 
L 314.478807 147.814125 
L 315.129417 117.574125 
L 315.780028 110.014125 
L 316.430638 147.814125 
L 317.081248 125.134125 
L 317.731858 147.814125 
L 318.382469 110.014125 
L 319.033079 102.454125 
L 319.683689 132.694125 
L 320.3343 215.854125 
L 320.98491 94.894125 
L 322.286131 125.134125 
L 322.936741 147.814125 
L 323.587351 110.014125 
L 324.237962 132.694125 
L 324.888572 178.054125 
L 325.539182 125.134125 
L 326.189793 132.694125 
L 326.840403 94.894125 
L 327.491013 110.014125 
L 328.141623 178.054125 
L 328.792234 87.334125 
L 329.442844 185.614125 
L 330.093454 140.254125 
L 330.744065 132.694125 
L 331.394675 79.774125 
L 332.045285 110.014125 
L 332.695896 49.534125 
L 333.346506 110.014125 
L 333.997116 49.534125 
L 334.647727 155.374125 
L 335.298337 155.374125 
L 335.948947 117.574125 
L 336.599558 170.494125 
L 337.250168 155.374125 
L 337.900778 87.334125 
L 338.551388 155.374125 
L 339.852609 170.494125 
L 341.15383 125.134125 
L 341.80444 125.134125 
L 342.45505 162.934125 
L 343.105661 125.134125 
L 343.756271 140.254125 
L 344.406881 87.334125 
L 345.057492 79.774125 
L 345.708102 155.374125 
L 346.358712 193.174125 
L 347.009323 140.254125 
L 347.659933 147.814125 
L 348.310543 132.694125 
L 348.961153 87.334125 
L 349.611764 79.774125 
L 350.262374 79.774125 
L 350.912984 64.654125 
L 351.563595 110.014125 
L 352.214205 125.134125 
L 352.864815 200.734125 
L 353.515426 110.014125 
L 354.166036 185.614125 
L 354.816646 185.614125 
L 355.467257 87.334125 
L 356.117867 147.814125 
L 356.768477 117.574125 
L 358.069698 132.694125 
L 358.720308 162.934125 
L 360.021529 87.334125 
L 360.672139 110.014125 
L 361.322749 117.574125 
L 361.97336 178.054125 
L 362.62397 102.454125 
L 363.27458 110.014125 
L 363.925191 147.814125 
L 364.575801 41.974125 
L 365.226411 162.934125 
L 365.877022 140.254125 
L 366.527632 147.814125 
L 367.828852 132.694125 
L 368.479463 155.374125 
L 369.130073 155.374125 
L 369.780683 147.814125 
L 370.431294 170.494125 
L 371.081904 140.254125 
L 371.732514 178.054125 
L 372.383125 110.014125 
L 373.033735 132.694125 
L 373.684345 125.134125 
L 374.334956 140.254125 
L 374.985566 125.134125 
L 375.636176 125.134125 
L 376.286787 117.574125 
L 376.937397 87.334125 
L 377.588007 140.254125 
L 378.238617 102.454125 
L 378.889228 193.174125 
L 379.539838 140.254125 
L 380.190448 170.494125 
L 380.841059 125.134125 
L 381.491669 110.014125 
L 382.142279 102.454125 
L 382.79289 147.814125 
L 383.4435 170.494125 
L 384.09411 162.934125 
L 384.744721 193.174125 
L 385.395331 87.334125 
L 386.045941 94.894125 
L 387.347162 208.294125 
L 387.997772 110.014125 
L 388.648382 125.134125 
L 389.298993 193.174125 
L 389.949603 125.134125 
L 390.600213 117.574125 
L 391.250824 102.454125 
L 391.901434 79.774125 
L 392.552044 185.614125 
L 393.202655 155.374125 
L 393.853265 110.014125 
L 394.503875 140.254125 
L 395.805096 125.134125 
L 397.106316 125.134125 
L 397.756927 162.934125 
L 398.407537 140.254125 
L 399.058147 64.654125 
L 399.708758 170.494125 
L 400.359368 110.014125 
L 401.009978 200.734125 
L 401.660589 185.614125 
L 402.961809 110.014125 
L 403.61242 162.934125 
L 404.26303 155.374125 
L 404.91364 155.374125 
L 405.564251 117.574125 
L 406.214861 117.574125 
L 406.865471 185.614125 
L 407.516081 79.774125 
L 408.166692 125.134125 
L 408.817302 238.534125 
L 409.467912 147.814125 
L 410.118523 155.374125 
L 410.118523 155.374125 
" clip-path="url(#pec744263a6)" style="fill: none; stroke: #0000ff; stroke-width: 2; stroke-linecap: square"/>
   </g>
   <g id="patch_3">
    <path d="M 69.23125 288.430125 
L 69.23125 22.318125 
" style="fill: none; stroke: #000000; stroke-width: 0.8; stroke-linejoin: miter; stroke-linecap: square"/>
   </g>
   <g id="patch_4">
    <path d="M 426.35125 288.430125 
L 426.35125 22.318125 
" style="fill: none; stroke: #000000; stroke-width: 0.8; stroke-linejoin: miter; stroke-linecap: square"/>
   </g>
   <g id="patch_5">
    <path d="M 69.23125 288.430125 
L 426.35125 288.430125 
" style="fill: none; stroke: #000000; stroke-width: 0.8; stroke-linejoin: miter; stroke-linecap: square"/>
   </g>
   <g id="patch_6">
    <path d="M 69.23125 22.318125 
L 426.35125 22.318125 
" style="fill: none; stroke: #000000; stroke-width: 0.8; stroke-linejoin: miter; stroke-linecap: square"/>
   </g>
   <g id="text_16">
    <!-- HV Trace Plot -->
    <g transform="translate(208.13875 16.318125)scale(0.12 -0.12)">
     <defs>
      <path id="DejaVuSans-48" d="M 628 4666 
L 1259 4666 
L 1259 2753 
L 3553 2753 
L 3553 4666 
L 4184 4666 
L 4184 0 
L 3553 0 
L 3553 2222 
L 1259 2222 
L 1259 0 
L 628 0 
L 628 4666 
z
" transform="scale(0.015625)"/>
      <path id="DejaVuSans-54" d="M -19 4666 
L 3928 4666 
L 3928 4134 
L 2272 4134 
L 2272 0 
L 1638 0 
L 1638 4134 
L -19 4134 
L -19 4666 
z
" transform="scale(0.015625)"/>
      <path id="DejaVuSans-63" d="M 3122 3366 
L 3122 2828 
Q 2878 2963 2633 3030 
Q 2388 3097 2138 3097 
Q 1578 3097 1268 2742 
Q 959 2388 959 1747 
Q 959 1106 1268 751 
Q 1578 397 2138 397 
Q 2388 397 2633 464 
Q 2878 531 3122 666 
L 3122 134 
Q 2881 22 2623 -34 
Q 2366 -91 2075 -91 
Q 1284 -91 818 406 
Q 353 903 353 1747 
Q 353 2603 823 3093 
Q 1294 3584 2113 3584 
Q 2378 3584 2631 3529 
Q 2884 3475 3122 3366 
z
" transform="scale(0.015625)"/>
      <path id="DejaVuSans-50" d="M 1259 4147 
L 1259 2394 
L 2053 2394 
Q 2494 2394 2734 2622 
Q 2975 2850 2975 3272 
Q 2975 3691 2734 3919 
Q 2494 4147 2053 4147 
L 1259 4147 
z
M 628 4666 
L 2053 4666 
Q 2838 4666 3239 4311 
Q 3641 3956 3641 3272 
Q 3641 2581 3239 2228 
Q 2838 1875 2053 1875 
L 1259 1875 
L 1259 0 
L 628 0 
L 628 4666 
z
" transform="scale(0.015625)"/>
     </defs>
     <use xlink:href="#DejaVuSans-48"/>
     <use xlink:href="#DejaVuSans-56" x="75.195312"/>
     <use xlink:href="#DejaVuSans-20" x="143.603516"/>
     <use xlink:href="#DejaVuSans-54" x="175.390625"/>
     <use xlink:href="#DejaVuSans-72" x="221.724609"/>
     <use xlink:href="#DejaVuSans-61" x="262.837891"/>
     <use xlink:href="#DejaVuSans-63" x="324.117188"/>
     <use xlink:href="#DejaVuSans-65" x="379.097656"/>
     <use xlink:href="#DejaVuSans-20" x="440.621094"/>
     <use xlink:href="#DejaVuSans-50" x="472.408203"/>
     <use xlink:href="#DejaVuSans-6c" x="532.710938"/>
     <use xlink:href="#DejaVuSans-6f" x="560.494141"/>
     <use xlink:href="#DejaVuSans-74" x="621.675781"/>
    </g>
   </g>
   <g id="legend_1">
    <g id="patch_7">
     <path d="M 372.990313 44.99625 
L 419.35125 44.99625 
Q 421.35125 44.99625 421.35125 42.99625 
L 421.35125 29.318125 
Q 421.35125 27.318125 419.35125 27.318125 
L 372.990313 27.318125 
Q 370.990313 27.318125 370.990313 29.318125 
L 370.990313 42.99625 
Q 370.990313 44.99625 372.990313 44.99625 
z
" style="fill: #ffffff; opacity: 0.8; stroke: #cccccc; stroke-linejoin: miter"/>
    </g>
    <g id="line2d_29">
     <path d="M 374.990313 35.416562 
L 384.990313 35.416562 
L 394.990313 35.416562 
" style="fill: none; stroke: #0000ff; stroke-width: 2; stroke-linecap: square"/>
    </g>
    <g id="text_17">
     <!-- HV -->
     <g transform="translate(402.990313 38.916562)scale(0.1 -0.1)">
      <use xlink:href="#DejaVuSans-48"/>
      <use xlink:href="#DejaVuSans-56" x="75.195312"/>
     </g>
    </g>
   </g>
  </g>
 </g>
 <defs>
  <clipPath id="pec744263a6">
   <rect x="69.23125" y="22.318125" width="357.12" height="266.112"/>
  </clipPath>
 </defs>
</svg>
